<svg xmlns="http://www.w3.org/2000/svg" xmlns:xlink="http://www.w3.org/1999/xlink" viewBox="0 0 783.69 318.12"><defs><style>.cls-1{fill:none;}.cls-2{fill:#043f9e;}.cls-3{clip-path:url(#clip-path);}.cls-4{fill:url(#linear-gradient);}.cls-5{clip-path:url(#clip-path-2);}</style><clipPath id="clip-path" transform="translate(11.61 18.12)"><path class="cls-1" d="M268.59,88.88C248,35.72,195.9,0,139,0,77.1,0,24.56,40.65,6.62,96.63a157.64,157.64,0,0,0,20.62,26.8,112.79,112.79,0,0,1,223-3.18c.37,2.19.69,4.39.92,6.62a158.69,158.69,0,0,0,11.15-12.18c1.86-2.27,3.65-4.61,5.39-7A23.15,23.15,0,0,0,268.59,88.88Z"/></clipPath><linearGradient id="linear-gradient" x1="142.46" x2="142.46" y2="176.41" gradientUnits="userSpaceOnUse"><stop offset="0" stop-color="#1a2d69"/><stop offset="1" stop-color="#0660ae"/></linearGradient><clipPath id="clip-path-2" transform="translate(11.61 18.12)"><path class="cls-1" d="M244.93,132.63a107.56,107.56,0,0,0-1.48-12.41,106.15,106.15,0,0,0-210.21,9.17A159.48,159.48,0,0,0,46.49,140.6c3,2.23,6,4.34,9.18,6.36-.25-2.63-.39-5.3-.39-8A83.68,83.68,0,1,1,222,149.56,157.88,157.88,0,0,0,244.93,132.63Z"/></clipPath></defs><g id="Capa_2" data-name="Capa 2"><g id="Layer_1" data-name="Layer 1"><path class="cls-2" d="M318.5,192.59V106h36.69a24.5,24.5,0,0,1,11,2.5,28.55,28.55,0,0,1,8.72,6.58,30.91,30.91,0,0,1,5.73,9.27,27.84,27.84,0,0,1,2.07,10.42,30,30,0,0,1-1.95,10.66,29.5,29.5,0,0,1-5.49,9.21,27,27,0,0,1-8.53,6.46,24.75,24.75,0,0,1-11,2.43H335.32v29Zm16.82-43.76h19.51a9.6,9.6,0,0,0,7.73-3.79q3.12-3.76,3.11-10.23a16.9,16.9,0,0,0-1-5.92,14.42,14.42,0,0,0-2.56-4.44,10.26,10.26,0,0,0-3.72-2.75,10.86,10.86,0,0,0-4.33-.91H335.32Z" transform="translate(11.61 18.12)"/><path class="cls-2" d="M431.38,193.2a39.31,39.31,0,0,1-17.25-3.72,42.48,42.48,0,0,1-13.29-9.87,45.84,45.84,0,0,1-11.64-30.3,43.33,43.33,0,0,1,3.23-16.57,45.54,45.54,0,0,1,8.9-14A42.44,42.44,0,0,1,414.8,109a40.09,40.09,0,0,1,16.94-3.59,38,38,0,0,1,17.13,3.84,42.77,42.77,0,0,1,13.23,10.06,46.25,46.25,0,0,1,8.53,14.14,44.48,44.48,0,0,1,3,16.09,43.77,43.77,0,0,1-3.16,16.51,44.84,44.84,0,0,1-8.78,13.9,42.32,42.32,0,0,1-13.41,9.63A39.94,39.94,0,0,1,431.38,193.2Zm-25.11-43.89a34.73,34.73,0,0,0,1.7,10.85,28.79,28.79,0,0,0,4.94,9.26,24.46,24.46,0,0,0,7.92,6.47,24.63,24.63,0,0,0,21.46-.06,24.59,24.59,0,0,0,7.92-6.65,29.74,29.74,0,0,0,4.88-9.32,34.89,34.89,0,0,0,1.64-10.55A33.6,33.6,0,0,0,455,138.47a30,30,0,0,0-5-9.27,24,24,0,0,0-7.93-6.4,24.66,24.66,0,0,0-21.39.12,24.07,24.07,0,0,0-7.92,6.58,29.64,29.64,0,0,0-4.82,9.27A34.52,34.52,0,0,0,406.27,149.31Z" transform="translate(11.61 18.12)"/><path class="cls-2" d="M538.16,128.71a21.42,21.42,0,0,0-3.11-2.31,37.38,37.38,0,0,0-5.49-2.87,49.08,49.08,0,0,0-7-2.38,30.62,30.62,0,0,0-7.68-1q-7,0-10.37,2.56a8.48,8.48,0,0,0-3.41,7.19,7.41,7.41,0,0,0,1.28,4.45,11,11,0,0,0,3.72,3.11,31.94,31.94,0,0,0,6.16,2.44c2.47.73,5.34,1.5,8.59,2.31q6.33,1.71,11.52,3.66a31.36,31.36,0,0,1,8.77,4.87,20.17,20.17,0,0,1,5.55,7,23.21,23.21,0,0,1,1.95,10.05A25,25,0,0,1,546,179.73a22,22,0,0,1-7.07,8,30.71,30.71,0,0,1-10.24,4.45,51.6,51.6,0,0,1-12.13,1.4,65.17,65.17,0,0,1-19.26-2.92,59.71,59.71,0,0,1-17.06-8.29l7.43-14.51a23.52,23.52,0,0,0,4,2.87,60.75,60.75,0,0,0,6.77,3.53,52.46,52.46,0,0,0,8.65,3,39.25,39.25,0,0,0,9.76,1.22q13.89,0,13.89-8.9a7.36,7.36,0,0,0-1.58-4.76,13.67,13.67,0,0,0-4.51-3.41,43.51,43.51,0,0,0-7.07-2.68c-2.77-.81-5.85-1.71-9.27-2.68a79.55,79.55,0,0,1-10.79-3.72,28.1,28.1,0,0,1-7.61-4.76,17.75,17.75,0,0,1-4.58-6.33,22.08,22.08,0,0,1-1.52-8.6,26.81,26.81,0,0,1,2.44-11.7,23.52,23.52,0,0,1,6.77-8.53,30.5,30.5,0,0,1,10.05-5.18,41.53,41.53,0,0,1,12.31-1.77,47.8,47.8,0,0,1,16.83,2.87,62.38,62.38,0,0,1,13.4,6.76Z" transform="translate(11.61 18.12)"/><path class="cls-2" d="M573.63,106h34.13a17.17,17.17,0,0,1,8.11,1.89,18.24,18.24,0,0,1,6,5.06,23.92,23.92,0,0,1,3.78,7.25,26.44,26.44,0,0,1,1.34,8.35,29.26,29.26,0,0,1-2.44,11.58,36.47,36.47,0,0,1-6.58,10.3,33.34,33.34,0,0,1-9.63,7.38,25.08,25.08,0,0,1-11.58,2.8H570.46l-6.82,31.94h-8.42Zm24.26,47.05a16.26,16.26,0,0,0,7.92-2.07,21.85,21.85,0,0,0,6.52-5.43,27.37,27.37,0,0,0,4.39-7.61,23.85,23.85,0,0,0,1.65-8.66,20.22,20.22,0,0,0-.92-6.16,15.41,15.41,0,0,0-2.62-5,12.67,12.67,0,0,0-4.08-3.36,11.22,11.22,0,0,0-5.18-1.21H580.46l-8.41,39.49Z" transform="translate(11.61 18.12)"/><path class="cls-2" d="M666.15,106h7.32l15.6,86.55h-9l-4.76-27.06H638.85l-16.09,27.06h-9.15Zm8.66,52.78L667.74,116,642,158.82Z" transform="translate(11.61 18.12)"/><path class="cls-2" d="M720.4,160.16,700.16,106h9.39l16.7,46.56L762.82,106h9.26l-43.4,54.37-6.82,32.18h-8.41Z" transform="translate(11.61 18.12)"/><path class="cls-2" d="M254,165.59a23,23,0,0,0-5.05-1.61,112.71,112.71,0,0,1-187,57.28v33.28a138.86,138.86,0,0,0,203.6-58.19A23.22,23.22,0,0,0,254,165.59Z" transform="translate(11.61 18.12)"/><path class="cls-2" d="M27.24,123.43A157.64,157.64,0,0,1,6.62,96.63,138.54,138.54,0,0,0,26.15,220V139A113.66,113.66,0,0,1,27.24,123.43Z" transform="translate(11.61 18.12)"/><g class="cls-3"><rect class="cls-4" width="284.92" height="176.41"/></g><path class="cls-2" d="M244.93,132.63a157.88,157.88,0,0,1-23,16.93A83.67,83.67,0,0,1,55.67,147c-3.13-2-6.2-4.13-9.18-6.36a159.48,159.48,0,0,1-13.25-11.21c-.29,3.15-.45,6.34-.45,9.57V288.75a11.25,11.25,0,1,0,22.49,0v-84L61,211a106.18,106.18,0,0,0,184.11-72C245.14,136.83,245.05,134.73,244.93,132.63Z" transform="translate(11.61 18.12)"/><g class="cls-5"><rect class="cls-4" width="284.92" height="176.41"/></g></g></g></svg>